<?xml version="1.0" encoding="utf-8"?>
<!-- Generator: Adobe Illustrator 24.1.1, SVG Export Plug-In . SVG Version: 6.00 Build 0)  -->
<svg version="1.1" id="Capa_1" xmlns="http://www.w3.org/2000/svg" xmlns:xlink="http://www.w3.org/1999/xlink" x="0px" y="0px"
	 viewBox="0 0 1205 579.3" style="enable-background:new 0 0 1205 579.3;" xml:space="preserve">
<style type="text/css">
	.st0{fill:#2F2526;}
	.st1{fill:#0C8BEA;}
	.st2{fill:#FEFFFD;}
	.st3{fill:none;}
	.st4{enable-background:new    ;}
</style>
<g>
	<path class="st0" d="M1171.8,436.5c0,0,2.2-23.7-35.5-23.7c0,0-8.9,0-11.1-18.9s0-97,0-97s-4.4-94.6-77.7-99.4
		c-55.7-3.6-115.2-4.5-140.6-4.7c-19.9-40-53.9-66.3-92.6-66.3c-38.7,0-72.7,26.3-92.6,66.3H114.2c0.3,2,0.1,4.3-0.3,7.3
		c-1,7-50,45-50,45s-8.3-0.5-18-2.8v116.1h677.1c20,38.6,53.5,63.9,91.4,63.9c37.9,0,71.3-25.3,91.3-63.8c9.8,0.3,26.4,1.3,26.4,4.6
		c0,4.7,0,47.3,0,47.3s-35.5-2.4-42.2,14.2s-6.7,30.8-6.7,30.8s-8.9,80.4,26.7,80.4s231,0,231,0s28.9,4.7,31.1-30.8
		S1171.8,436.5,1171.8,436.5z"/>
	<path class="st0" d="M827.6,88.8c0,0,2.8-7.1,6.6-12h34.9c4.9,19.1,21.2,33.1,40.7,33.1c23.3,0,42.2-20.1,42.2-45s-18.9-45-42.2-45
		c-18.6,0-34.4,12.9-40,30.8H761v0.1C755.3,33,739,20,719.9,20c-23.9,0-43.3,20.1-43.3,45s19.4,45,43.3,45c20,0,36.7-14.1,41.7-33.1
		h33.2c4.1,6.1,8.3,15.9,8.3,15.9v33.8h11.1h13.3L827.6,88.8L827.6,88.8z"/>
</g>
<rect x="228.8" y="374" class="st1" width="0" height="2"/>
<g>
	<path class="st1" d="M1100.4,372c0,0,1-10-16.6-10c0,0-4.2,0-5.2-8c-1-8,0-41,0-41s-2.1-40-36.4-42c-26.1-1.5-53.9-1.9-65.8-2
		c-9.3-16.9-25.3-28-43.4-28c-18.1,0-34,11.1-43.4,28H570v-2v-32.7c0-0.2,0-0.4,0.1-0.6c1.7-10-6.1-14.9-7.2-15.6
		c-0.1-0.1-0.2-0.1-0.3-0.2L327.7,54c-0.2-0.1-0.9-0.8-1-1c-15.6-13-24.4-7.2-25.8-6.2c-4.3,3.2-4.2,3.1-4.3,3.2
		c-8.7,6.1-227,158.2-239.2,167c-12.5,9-11.4,18-11.4,18V335c0,2.2,1.9,4.1,4.2,4.1h70.7c2.3,0,4.2-1.8,4.2-4c0.2-14.4,1-63,1-69
		c0-6.4,6.8-12.7,8.1-13.8c0.1-0.1,0.3-0.2,0.4-0.3c6.5-4.4,169.7-115.4,172.4-118.9c2.6-3.4,5.3-1,6-0.2c0.2,0.2,0.4,0.4,0.6,0.5
		L487.8,261c10.4,7,9.4,10,9.4,10V335c0,2.2,1.9,4.1,4.2,4.1h5h59.4h324.4c9.4,16.3,25,27,42.8,27c17.7,0,33.4-10.7,42.8-27
		c4.6,0.1,12.4,0.5,12.4,2c0,2,0,20,0,20s-16.6-1-19.8,6s-3.1,13-3.1,13s-4.2,34,12.5,34s108.2,0,108.2,0s13.5,2,14.6-13
		C1101.4,386,1100.4,372,1100.4,372z"/>
	<path class="st1" d="M939.2,225.1c0,0,1.3-3,3.1-5.1h16.3c2.3,8.1,9.9,14,19.1,14c10.9,0,19.8-8.5,19.8-19s-8.8-19-19.8-19
		c-8.7,0-16.1,5.4-18.7,13H908v0c-2.7-7.6-10.3-13-19.2-13c-11.2,0-20.3,8.5-20.3,19s9.1,19,20.3,19c9.3,0,17.2-5.9,19.5-14h15.6
		c1.9,2.6,3.9,6.7,3.9,6.7V241h5.2h6.2L939.2,225.1L939.2,225.1z"/>
</g>
<path class="st2" d="M295.8,283h-31.9c-2.8,0-5.1-2.3-5.1-5.1v-31.9c0-2.8,2.3-5.1,5.1-5.1h31.9c2.8,0,5.1,2.3,5.1,5.1V278
	C300.8,280.8,298.6,283,295.8,283z"/>
<path class="st2" d="M356.8,283h-31.9c-2.8,0-5.1-2.3-5.1-5.1v-31.9c0-2.8,2.3-5.1,5.1-5.1h31.9c2.8,0,5.1,2.3,5.1,5.1V278
	C361.8,280.8,359.6,283,356.8,283z"/>
<path class="st2" d="M356.8,337h-31.9c-2.8,0-5.1-2.3-5.1-5.1v-31.9c0-2.8,2.3-5.1,5.1-5.1h31.9c2.8,0,5.1,2.3,5.1,5.1V332
	C361.8,334.8,359.6,337,356.8,337z"/>
<path class="st2" d="M295.8,337h-31.9c-2.8,0-5.1-2.3-5.1-5.1v-31.9c0-2.8,2.3-5.1,5.1-5.1h31.9c2.8,0,5.1,2.3,5.1,5.1V332
	C300.8,334.8,298.6,337,295.8,337z"/>
<rect x="-219.3" y="373.6" class="st3" width="1246.1" height="144.4"/>
<g class="st4">
	<path class="st1" d="M48.9,497.6v-124h62l15.5,15.5v46.5l-15.5,15.5h-31v46.5H48.9z M95.4,420.1v-15.5H79.9v15.5H95.4z"/>
	<path class="st1" d="M206,492.8v4.8H204l-25.4-25.6v6.3l19.1,19.3h-6.5l-12.6-12.7v6.3l6.4,6.4h-49.8v-124h31v93H180L206,492.8z
		 M186.1,466.6h6.4l13.4,13.4v6.5L186.1,466.6z M198.8,466.6h7.1v7.1L198.8,466.6z"/>
	<path class="st1" d="M246.9,423.8v42.9h15.5v-93h31v108.5l-15.5,15.5h-46.5l-15.5-15.5v-89.5L246.9,423.8z M246.9,410.9v6.7
		l-31-31.2v-6.5L246.9,410.9z M216,373.6h6.7l24.2,24.3v6.8L216,373.6z M229,373.6h6.5l11.4,11.5v6.5L229,373.6z M241.7,373.6h5.2
		v5.2L241.7,373.6z"/>
	<path class="st1" d="M410.8,412.2v6.5l-30.3-30.4v6.2l30.3,30.5v6.8l-30.3-30.5v6.3l30.3,30.4v6.7l-30.3-30.5v6.3l30.3,30.4v46.7
		h-31v-46.5l-23.3,46.1l-23.3-46.1v46.5h-31v-124h31l23.3,46.1l23.3-46.1h31V406l-30.3-30.4v6.3L410.8,412.2z"/>
	<path class="st1" d="M499.3,401.1v6.8L470,378.5v6.3l29.3,29.4v6.5L470,391.3v6.3l29.3,29.4v0.8l-7.8,7.8l7.8,7.8v38.8l-15.5,15.5
		h-62v-124h50.1L499.3,401.1z M468.3,420.1v-15.5h-15.5v15.5H468.3z M468.3,466.6v-15.5h-15.5v15.5H468.3z M478.1,373.6h5.7
		l15.5,15.5v5.8L478.1,373.6z"/>
	<path class="st1" d="M586.7,399.7v5h-1.8l-24.7-24.8v6.3l18.4,18.5h-6.5l-11.9-12v6.3l5.7,5.7h-26.8v15.5h36.2v31h-36.2v15.5h47.6
		v31h-78.6v-124h52.7L586.7,399.7z M567,373.6h6.5l13.2,13.3v6.5L567,373.6z M579.7,373.6h7v7L579.7,373.6z"/>
	<path class="st1" d="M596.5,445.1v-71.4h62l15.5,15.5v46.5l-13.4,13.4l17.9,48.6h-34.8l-16.2-46.5v25.1L596.5,445.1z M596.5,457.9
		v-6.5l31,31.1v6.5L596.5,457.9z M627.5,495.3v2.3H623l-26.5-26.8v-6.8L627.5,495.3z M616.9,497.6h-6.5l-13.8-13.9v-6.5L616.9,497.6
		z M604.1,497.6h-7.6V490L604.1,497.6z M643,420.1v-15.5h-15.5v15.5H643z"/>
	<path class="st1" d="M697.7,497.6l-15.5-15.5v-23.3h31v7.8h15.5v-15.5h-31l-15.5-15.5v-46.5l15.5-15.5h46.5l15.5,15.5v23.3h-31
		v-7.8h-15.5v15.5h31l15.5,15.5v46.5l-15.5,15.5H697.7z"/>
</g>
<rect x="-46.9" y="517.7" class="st3" width="867.7" height="48.3"/>
<g class="st4">
	<path class="st0" d="M101.3,542.4v-20h6.5c2.3,0,4,0.2,5,0.6c2,0.9,3,2.6,3,5.1c0,2.1-0.8,3.8-2.4,5c-1.6,1.2-3.9,1.8-6.8,1.8h-2.3
		v7.6H101.3z M104.4,532.5h1.9c4.2,0,6.3-1.5,6.3-4.4c0-1.2-0.4-2.1-1.2-2.6c-0.8-0.5-2.1-0.8-3.9-0.8h-3.1V532.5z"/>
	<path class="st0" d="M120.5,542.4v-20h3.1v17.7h10.8v2.3H120.5z"/>
	<path class="st0" d="M137.3,532.4c0-3.2,0.8-5.7,2.4-7.6c1.6-1.9,3.7-2.9,6.3-2.9s4.8,1,6.3,2.9c1.6,1.9,2.4,4.5,2.4,7.6
		c0,3.2-0.8,5.8-2.4,7.7c-1.6,1.9-3.7,2.9-6.3,2.9s-4.8-1-6.3-2.9C138.1,538.1,137.3,535.6,137.3,532.4z M140.6,532.4
		c0,2.6,0.5,4.6,1.4,6.1c0.9,1.4,2.3,2.1,4,2.1c1.7,0,3.1-0.7,4-2.1s1.4-3.4,1.4-6.1c0-2.6-0.5-4.6-1.4-6.1s-2.3-2.1-4-2.1
		c-1.7,0-3.1,0.7-4,2.1C141,527.7,140.6,529.8,140.6,532.4z"/>
	<path class="st0" d="M157.1,542.4v-20h3.7l4.4,12.3h0l4.3-12.3h3.9v20h-2.5v-17.2h0l-4.5,13h-2.6l-4.5-12.6h0v16.8H157.1z"/>
	<path class="st0" d="M178.3,542.4v-20h13.5v2.3h-10.5v6.1h8.9v2.3h-8.9v7h11.2v2.3H178.3z"/>
	<path class="st0" d="M197,542.4v-20h5.6c2.3,0,4,0.2,4.9,0.6c1.9,0.8,2.9,2.2,2.9,4.3c0,1.4-0.3,2.6-1,3.5
		c-0.7,0.9-1.8,1.8-3.4,2.6l6.9,9.1h-3.7l-6.3-8.3h-2.8v8.3H197z M200.1,531.7h1.6c1.7,0,3-0.4,3.9-1.1c1-0.7,1.5-1.7,1.5-3
		c0-1.2-0.4-2-1.1-2.4c-0.7-0.4-2.1-0.6-4-0.6h-1.9V531.7z"/>
	<path class="st0" d="M216.2,542.4v-2.3h5.4v-15.4h-5.4v-2.3H230v2.3h-5.4v15.4h5.4v2.3H216.2z"/>
	<path class="st0" d="M232.9,542.4l7.9-20h3.1l7.9,20h-3.3l-1.9-5h-9.2l-1.9,5H232.9z M238.4,535.1h7.3l-3.7-9.6L238.4,535.1z"/>
	<path class="st0" d="M279.4,542.4v-8.2l-7.6-11.8h3.5l5.8,9.3l6.4-9.3h2.9l-8,11.8v8.2H279.4z"/>
	<path class="st0" d="M325.6,522.8v2.7c-2.3-0.9-4.3-1.3-6-1.3c-2.8,0-4.2,0.9-4.2,2.8c0,0.8,0.3,1.4,0.8,1.8
		c0.5,0.5,1.5,0.9,2.9,1.4l2,0.7l1.9,0.6c2.9,1,4.4,2.8,4.4,5.2c0,1.9-0.7,3.3-2.2,4.4s-3.5,1.7-6,1.7c-1.7,0-4-0.4-6.7-1.1v-3
		c2.7,1.2,5,1.8,6.8,1.8c1.5,0,2.7-0.3,3.6-0.9c0.9-0.6,1.4-1.4,1.4-2.4c0-0.8-0.3-1.4-0.8-1.8c-0.5-0.4-1.6-1-3.3-1.6l-2.1-0.8
		c-2.1-0.8-3.5-1.5-4.3-2.3c-0.8-0.8-1.2-1.9-1.2-3.2c0-1.8,0.6-3.2,1.8-4.2c1.2-1,2.9-1.5,5.2-1.5
		C321.4,521.9,323.4,522.2,325.6,522.8z"/>
	<path class="st0" d="M332.5,542.4v-20h13.5v2.3h-10.5v6.1h8.9v2.3h-8.9v7h11.2v2.3H332.5z"/>
	<path class="st0" d="M351.3,542.4v-20h5.6c2.3,0,4,0.2,4.9,0.6c1.9,0.8,2.9,2.2,2.9,4.3c0,1.4-0.3,2.6-1,3.5
		c-0.7,0.9-1.8,1.8-3.4,2.6l6.9,9.1h-3.7l-6.3-8.3h-2.8v8.3H351.3z M354.4,531.7h1.6c1.7,0,3-0.4,3.9-1.1c1-0.7,1.5-1.7,1.5-3
		c0-1.2-0.4-2-1.1-2.4c-0.7-0.4-2.1-0.6-4-0.6h-1.9V531.7z"/>
	<path class="st0" d="M375.7,542.4l-7.8-20h3.3l6.4,15.9l6.5-15.9h2.6l-8,20H375.7z"/>
	<path class="st0" d="M389.7,542.4v-2.3h5.4v-15.4h-5.4v-2.3h13.9v2.3h-5.4v15.4h5.4v2.3H389.7z"/>
	<path class="st0" d="M424.3,541.8c-2.1,0.7-4,1.1-5.8,1.1c-3.2,0-5.8-1-7.7-2.9c-1.9-1.9-2.9-4.4-2.9-7.5c0-3.2,1-5.7,2.9-7.7
		c1.9-2,4.5-2.9,7.6-2.9c1.8,0,3.7,0.3,5.7,0.9v2.8c-2.1-0.9-4-1.4-5.8-1.4c-2.1,0-3.8,0.8-5.1,2.3c-1.3,1.5-2,3.5-2,5.8
		c0,2.4,0.8,4.3,2.3,5.8c1.5,1.5,3.5,2.3,5.8,2.3c1.4,0,3.1-0.4,5.1-1.1V541.8z"/>
	<path class="st0" d="M428.2,542.4v-2.3h5.4v-15.4h-5.4v-2.3h13.9v2.3h-5.4v15.4h5.4v2.3H428.2z"/>
	<path class="st0" d="M445.8,532.4c0-3.2,0.8-5.7,2.4-7.6c1.6-1.9,3.7-2.9,6.3-2.9s4.8,1,6.3,2.9c1.6,1.9,2.4,4.5,2.4,7.6
		c0,3.2-0.8,5.8-2.4,7.7c-1.6,1.9-3.7,2.9-6.3,2.9s-4.8-1-6.3-2.9C446.6,538.1,445.8,535.6,445.8,532.4z M449.1,532.4
		c0,2.6,0.5,4.6,1.4,6.1c0.9,1.4,2.3,2.1,4,2.1c1.7,0,3.1-0.7,4-2.1s1.4-3.4,1.4-6.1c0-2.6-0.5-4.6-1.4-6.1s-2.3-2.1-4-2.1
		c-1.7,0-3.1,0.7-4,2.1C449.5,527.7,449.1,529.8,449.1,532.4z"/>
	<path class="st0" d="M479.9,522.8v2.7c-2.3-0.9-4.3-1.3-6-1.3c-2.8,0-4.2,0.9-4.2,2.8c0,0.8,0.3,1.4,0.8,1.8
		c0.5,0.5,1.5,0.9,2.9,1.4l2,0.7l1.9,0.6c2.9,1,4.4,2.8,4.4,5.2c0,1.9-0.7,3.3-2.2,4.4s-3.5,1.7-6,1.7c-1.7,0-4-0.4-6.7-1.1v-3
		c2.7,1.2,5,1.8,6.8,1.8c1.5,0,2.7-0.3,3.6-0.9c0.9-0.6,1.4-1.4,1.4-2.4c0-0.8-0.3-1.4-0.8-1.8c-0.5-0.4-1.6-1-3.3-1.6l-2.1-0.8
		c-2.1-0.8-3.5-1.5-4.3-2.3c-0.8-0.8-1.2-1.9-1.2-3.2c0-1.8,0.6-3.2,1.8-4.2c1.2-1,2.9-1.5,5.2-1.5
		C475.6,521.9,477.6,522.2,479.9,522.8z"/>
	<path class="st0" d="M506.1,542.4v-20h3.1v17.7H520v2.3H506.1z"/>
	<path class="st0" d="M522.9,532.4c0-3.2,0.8-5.7,2.4-7.6c1.6-1.9,3.7-2.9,6.3-2.9s4.8,1,6.3,2.9c1.6,1.9,2.4,4.5,2.4,7.6
		c0,3.2-0.8,5.8-2.4,7.7c-1.6,1.9-3.7,2.9-6.3,2.9s-4.8-1-6.3-2.9C523.7,538.1,522.9,535.6,522.9,532.4z M526.2,532.4
		c0,2.6,0.5,4.6,1.4,6.1c0.9,1.4,2.3,2.1,4,2.1c1.7,0,3.1-0.7,4-2.1s1.4-3.4,1.4-6.1c0-2.6-0.5-4.6-1.4-6.1s-2.3-2.1-4-2.1
		c-1.7,0-3.1,0.7-4,2.1C526.7,527.7,526.2,529.8,526.2,532.4z"/>
	<path class="st0" d="M559.3,541.8c-2.1,0.7-4,1.1-5.8,1.1c-3.2,0-5.8-1-7.7-2.9c-1.9-1.9-2.9-4.4-2.9-7.5c0-3.2,1-5.7,2.9-7.7
		c1.9-2,4.5-2.9,7.6-2.9c1.8,0,3.7,0.3,5.7,0.9v2.8c-2.1-0.9-4-1.4-5.8-1.4c-2.1,0-3.8,0.8-5.1,2.3c-1.3,1.5-2,3.5-2,5.8
		c0,2.4,0.8,4.3,2.3,5.8c1.5,1.5,3.5,2.3,5.8,2.3c1.4,0,3.1-0.4,5.1-1.1V541.8z"/>
	<path class="st0" d="M560.7,542.4l7.9-20h3.1l7.9,20h-3.3l-1.9-5h-9.2l-1.9,5H560.7z M566.2,535.1h7.3l-3.7-9.6L566.2,535.1z"/>
	<path class="st0" d="M587.9,542.4v-17.7h-7.7v-2.3h18.5v2.3H591v17.7H587.9z"/>
	<path class="st0" d="M601.8,542.4v-2.3h5.4v-15.4h-5.4v-2.3h13.9v2.3h-5.4v15.4h5.4v2.3H601.8z"/>
	<path class="st0" d="M626.4,542.4l-7.8-20h3.3l6.4,15.9l6.5-15.9h2.6l-8,20H626.4z"/>
	<path class="st0" d="M638.6,532.4c0-3.2,0.8-5.7,2.4-7.6c1.6-1.9,3.7-2.9,6.3-2.9s4.8,1,6.3,2.9c1.6,1.9,2.4,4.5,2.4,7.6
		c0,3.2-0.8,5.8-2.4,7.7c-1.6,1.9-3.7,2.9-6.3,2.9s-4.8-1-6.3-2.9C639.4,538.1,638.6,535.6,638.6,532.4z M641.9,532.4
		c0,2.6,0.5,4.6,1.4,6.1c0.9,1.4,2.3,2.1,4,2.1c1.7,0,3.1-0.7,4-2.1s1.4-3.4,1.4-6.1c0-2.6-0.5-4.6-1.4-6.1s-2.3-2.1-4-2.1
		c-1.7,0-3.1,0.7-4,2.1C642.4,527.7,641.9,529.8,641.9,532.4z"/>
	<path class="st0" d="M672.7,522.8v2.7c-2.3-0.9-4.3-1.3-6-1.3c-2.8,0-4.2,0.9-4.2,2.8c0,0.8,0.3,1.4,0.8,1.8
		c0.5,0.5,1.5,0.9,2.9,1.4l2,0.7l1.9,0.6c2.9,1,4.4,2.8,4.4,5.2c0,1.9-0.7,3.3-2.2,4.4s-3.5,1.7-6,1.7c-1.7,0-4-0.4-6.7-1.1v-3
		c2.7,1.2,5,1.8,6.8,1.8c1.5,0,2.7-0.3,3.6-0.9c0.9-0.6,1.4-1.4,1.4-2.4c0-0.8-0.3-1.4-0.8-1.8c-0.5-0.4-1.6-1-3.3-1.6l-2.1-0.8
		c-2.1-0.8-3.5-1.5-4.3-2.3c-0.8-0.8-1.2-1.9-1.2-3.2c0-1.8,0.6-3.2,1.8-4.2c1.2-1,2.9-1.5,5.2-1.5
		C668.4,521.9,670.5,522.2,672.7,522.8z"/>
</g>
</svg>
